<svg width="64" height="64" viewBox="0 0 64 64" fill="none" xmlns="http://www.w3.org/2000/svg">
<rect width="64" height="64" rx="5" fill="white"/>
<path d="M31.5 10C43.6503 10 53.5 19.8497 53.5 32C53.5 44.1503 43.6503 54 31.5 54C25.0201 54 19.1951 51.1981 15.1689 46.7402C18.0932 48.7936 21.6555 50 25.5 50C35.4411 50 43.5 41.9411 43.5 32C43.5 22.0589 35.4411 14 25.5 14C21.6557 14 18.0931 15.2056 15.1689 17.2588C19.1951 12.8013 25.0204 10 31.5 10Z" fill="#E2001A"/>
<path d="M25 16C33.5604 16 40.5 23.0515 40.5 31.75C40.5 40.4485 33.5604 47.5 25 47.5C20.6397 47.5 16.7012 45.6693 13.8848 42.7246C15.823 43.8509 18.0838 44.5 20.5 44.5C27.6797 44.5 33.5 38.7916 33.5 31.75C33.5 24.7084 27.6797 19 20.5 19C18.084 19 15.8229 19.6483 13.8848 20.7744C16.7011 17.83 20.64 16 25 16Z" fill="#1A171B"/>
<path d="M20.5 22C22.9805 22 25.2484 22.905 26.9961 24.4004C25.8717 23.8261 24.5992 23.5 23.25 23.5C18.6937 23.5 15 27.1937 15 31.75C15 36.3063 18.6937 40 23.25 40C25.1373 40 26.8756 39.3651 28.2656 38.2988C26.4321 40.5565 23.6351 42 20.5 42C14.9772 42 10.5 37.5228 10.5 32C10.5 26.4772 14.9772 22 20.5 22Z" fill="#E2001A"/>
</svg>
