<svg width="433" height="72" viewBox="0 0 433 72" fill="none" xmlns="http://www.w3.org/2000/svg">
<path d="M212.084 26.9H216.242C216.528 26.9 216.748 26.955 216.902 27.065C217.078 27.175 217.221 27.428 217.331 27.824L222.677 49.01C222.721 49.142 222.743 49.285 222.743 49.439C222.743 49.813 222.501 50 222.017 50H218.783C218.453 50 218.211 49.912 218.057 49.736C217.925 49.56 217.826 49.34 217.76 49.076L217.1 46.568C217.012 46.238 216.792 46.073 216.44 46.073H211.919C211.545 46.073 211.325 46.238 211.259 46.568L210.632 49.175C210.588 49.395 210.489 49.593 210.335 49.769C210.203 49.923 209.983 50 209.675 50H206.474C206.056 50 205.847 49.791 205.847 49.373C205.847 49.307 205.847 49.241 205.847 49.175C205.891 49.087 205.913 49.032 205.913 49.01L210.995 27.824C211.083 27.428 211.204 27.175 211.358 27.065C211.534 26.955 211.776 26.9 212.084 26.9ZM212.81 41.651H215.549C215.791 41.651 215.868 41.486 215.78 41.156L214.328 35.315C214.306 35.227 214.262 35.161 214.196 35.117C214.152 35.051 214.119 35.007 214.097 34.985C213.965 35.117 213.888 35.227 213.866 35.315L212.579 41.156C212.491 41.486 212.568 41.651 212.81 41.651Z" fill="#1A171B"/>
<path d="M188.824 48.878V27.824C188.824 27.45 188.901 27.208 189.055 27.098C189.209 26.966 189.462 26.9 189.814 26.9H196.183C198.713 26.9 200.616 27.483 201.892 28.649C203.014 29.683 203.575 31.047 203.575 32.741C203.575 33.797 203.311 34.732 202.783 35.546C202.255 36.36 201.474 36.976 200.44 37.394V37.526C201.694 37.944 202.673 38.67 203.377 39.704C204.103 40.738 204.466 41.959 204.466 43.367C204.466 45.303 203.916 46.843 202.816 47.987C201.518 49.329 199.538 50 196.876 50H189.814C189.154 50 188.824 49.626 188.824 48.878ZM195.391 35.645C196.425 35.645 197.195 35.436 197.701 35.018C198.207 34.578 198.46 34.039 198.46 33.401C198.46 32.785 198.262 32.29 197.866 31.916C197.338 31.432 196.502 31.19 195.358 31.19H194.302C193.906 31.19 193.708 31.344 193.708 31.652V35.249C193.708 35.513 193.917 35.645 194.335 35.645H195.391ZM194.137 45.71H195.655C196.821 45.71 197.701 45.446 198.295 44.918C198.889 44.368 199.186 43.686 199.186 42.872C199.186 42.058 198.922 41.387 198.394 40.859C197.756 40.243 196.843 39.935 195.655 39.935H194.236C193.994 39.935 193.84 39.99 193.774 40.1C193.73 40.21 193.708 40.342 193.708 40.496V45.314C193.708 45.578 193.851 45.71 194.137 45.71Z" fill="#1A171B"/>
<path d="M175.439 50H172.932C172.536 50 172.271 49.956 172.139 49.868C171.897 49.692 171.777 49.351 171.777 48.845V28.055C171.777 27.659 171.82 27.395 171.908 27.263C172.084 27.021 172.426 26.9 172.932 26.9H175.505C176.011 26.9 176.33 26.999 176.462 27.197C176.594 27.373 176.66 27.659 176.66 28.055V38.846L181.083 28.055C181.281 27.571 181.456 27.263 181.611 27.131C181.786 26.977 182.039 26.9 182.369 26.9H185.042C185.548 26.9 185.867 26.999 185.999 27.197C186.132 27.373 186.197 27.659 186.197 28.055V48.845C186.197 49.241 186.153 49.505 186.065 49.637C185.889 49.879 185.548 50 185.042 50H182.468C181.962 50 181.643 49.912 181.511 49.736C181.379 49.538 181.313 49.241 181.313 48.845V37.526L176.958 48.845C176.782 49.329 176.572 49.648 176.33 49.802C176.11 49.934 175.813 50 175.439 50Z" fill="#1A171B"/>
<path d="M154.976 26.9H169.595C169.859 26.9 170.035 26.988 170.123 27.164C170.233 27.318 170.288 27.494 170.288 27.692V30.629C170.288 31.091 170.057 31.322 169.595 31.322H165.305C164.909 31.322 164.711 31.52 164.711 31.916V48.845C164.711 49.241 164.667 49.505 164.579 49.637C164.403 49.879 164.062 50 163.556 50H160.982C160.476 50 160.157 49.912 160.025 49.736C159.893 49.538 159.827 49.241 159.827 48.845V31.916C159.827 31.52 159.629 31.322 159.233 31.322H155.075C154.525 31.322 154.25 31.102 154.25 30.662V27.527C154.25 27.109 154.492 26.9 154.976 26.9Z" fill="#1A171B"/>
<path d="M143.183 26.9H147.341C147.627 26.9 147.847 26.955 148.001 27.065C148.177 27.175 148.32 27.428 148.43 27.824L153.776 49.01C153.82 49.142 153.842 49.285 153.842 49.439C153.842 49.813 153.6 50 153.116 50H149.882C149.552 50 149.31 49.912 149.156 49.736C149.024 49.56 148.925 49.34 148.859 49.076L148.199 46.568C148.111 46.238 147.891 46.073 147.539 46.073H143.018C142.644 46.073 142.424 46.238 142.358 46.568L141.731 49.175C141.687 49.395 141.588 49.593 141.434 49.769C141.302 49.923 141.082 50 140.774 50H137.573C137.155 50 136.946 49.791 136.946 49.373C136.946 49.307 136.946 49.241 136.946 49.175C136.99 49.087 137.012 49.032 137.012 49.01L142.094 27.824C142.182 27.428 142.303 27.175 142.457 27.065C142.633 26.955 142.875 26.9 143.183 26.9ZM143.909 41.651H146.648C146.89 41.651 146.967 41.486 146.879 41.156L145.427 35.315C145.405 35.227 145.361 35.161 145.295 35.117C145.251 35.051 145.218 35.007 145.196 34.985C145.064 35.117 144.987 35.227 144.965 35.315L143.678 41.156C143.59 41.486 143.667 41.651 143.909 41.651Z" fill="#1A171B"/>
<path d="M122.175 26.9H124.749C125.255 26.9 125.574 26.999 125.706 27.197C125.838 27.373 125.904 27.659 125.904 28.055V34.424C125.904 34.622 125.926 34.776 125.97 34.886C126.036 34.996 126.179 35.051 126.399 35.051H129.996C130.106 35.051 130.183 35.04 130.227 35.018C130.425 34.908 130.524 34.688 130.524 34.358V28.055C130.524 27.659 130.568 27.395 130.656 27.263C130.832 27.021 131.173 26.9 131.679 26.9H134.253C134.759 26.9 135.078 26.999 135.21 27.197C135.342 27.373 135.408 27.659 135.408 28.055V48.845C135.408 49.241 135.364 49.505 135.276 49.637C135.1 49.879 134.759 50 134.253 50H131.679C131.173 50 130.854 49.912 130.722 49.736C130.59 49.538 130.524 49.241 130.524 48.845V40.199C130.524 39.847 130.348 39.671 129.996 39.671H126.399C126.069 39.671 125.904 39.836 125.904 40.166V48.845C125.904 49.351 125.805 49.67 125.607 49.802C125.431 49.934 125.145 50 124.749 50H122.175C121.779 50 121.515 49.956 121.383 49.868C121.141 49.692 121.02 49.351 121.02 48.845V28.055C121.02 27.659 121.064 27.395 121.152 27.263C121.328 27.021 121.669 26.9 122.175 26.9Z" fill="#1A171B"/>
<path d="M104.74 26.9H110.746C114.046 26.9 116.367 27.769 117.709 29.507C118.589 30.651 119.029 32.136 119.029 33.962C119.029 36.206 118.292 37.889 116.818 39.011C115.366 40.133 113.452 40.694 111.076 40.694H108.964C108.634 40.694 108.469 40.859 108.469 41.189V48.845C108.469 49.351 108.37 49.67 108.172 49.802C107.996 49.934 107.71 50 107.314 50H104.74C104.344 50 104.08 49.956 103.948 49.868C103.706 49.692 103.585 49.351 103.585 48.845V28.055C103.585 27.659 103.629 27.395 103.717 27.263C103.893 27.021 104.234 26.9 104.74 26.9ZM108.832 36.404H110.746C111.582 36.404 112.286 36.162 112.858 35.678C113.452 35.172 113.749 34.523 113.749 33.731C113.749 32.983 113.54 32.389 113.122 31.949C112.594 31.399 111.791 31.124 110.713 31.124H108.898C108.612 31.124 108.469 31.267 108.469 31.553V36.074C108.469 36.294 108.59 36.404 108.832 36.404Z" fill="#1A171B"/>
<path d="M87.5363 48.845V28.055C87.5363 27.659 87.5803 27.395 87.6683 27.263C87.8443 27.021 88.1853 26.9 88.6913 26.9H99.5153C100.021 26.9 100.34 26.999 100.472 27.197C100.604 27.373 100.67 27.659 100.67 28.055V30.398C100.67 30.64 100.582 30.838 100.406 30.992C100.252 31.124 99.9993 31.19 99.6473 31.19H93.0143C92.6183 31.19 92.4203 31.366 92.4203 31.718V35.183C92.4203 35.579 92.5413 35.777 92.7833 35.777H97.9973C98.2173 35.777 98.3933 35.832 98.5253 35.942C98.6793 36.052 98.7563 36.206 98.7563 36.404V39.407C98.7563 39.847 98.5363 40.067 98.0963 40.067H92.8493C92.5633 40.067 92.4203 40.254 92.4203 40.628V45.314C92.4203 45.578 92.5413 45.71 92.7833 45.71H100.208C100.582 45.71 100.824 45.787 100.934 45.941C101.044 46.073 101.099 46.271 101.099 46.535V48.845C101.099 49.241 101.055 49.505 100.967 49.637C100.791 49.879 100.45 50 99.9443 50H88.6913C88.2953 50 88.0313 49.956 87.8993 49.868C87.6573 49.692 87.5363 49.351 87.5363 48.845Z" fill="#1A171B"/>
<path d="M70.7362 26.9H85.3552C85.6192 26.9 85.7952 26.988 85.8832 27.164C85.9932 27.318 86.0482 27.494 86.0482 27.692V30.629C86.0482 31.091 85.8172 31.322 85.3552 31.322H81.0652C80.6692 31.322 80.4712 31.52 80.4712 31.916V48.845C80.4712 49.241 80.4272 49.505 80.3392 49.637C80.1632 49.879 79.8222 50 79.3162 50H76.7422C76.2362 50 75.9172 49.912 75.7852 49.736C75.6532 49.538 75.5872 49.241 75.5872 48.845V31.916C75.5872 31.52 75.3892 31.322 74.9932 31.322H70.8352C70.2852 31.322 70.0102 31.102 70.0102 30.662V27.527C70.0102 27.109 70.2522 26.9 70.7362 26.9Z" fill="#1A171B"/>
<path d="M53.6094 48.845V28.055C53.6094 27.659 53.6534 27.395 53.7414 27.263C53.9174 27.021 54.2584 26.9 54.7644 26.9H57.3384C57.8444 26.9 58.1634 26.999 58.2954 27.197C58.4274 27.373 58.4934 27.659 58.4934 28.055V34.754C58.4934 35.018 58.6254 35.15 58.8894 35.15H61.3314C63.7734 35.15 65.6654 35.843 67.0074 37.229C68.3494 38.615 69.0204 40.485 69.0204 42.839C69.0204 45.655 68.0634 47.646 66.1494 48.812C64.8294 49.604 63.0804 50 60.9024 50H54.7644C54.2584 50 53.9394 49.912 53.8074 49.736C53.6754 49.538 53.6094 49.241 53.6094 48.845ZM58.4934 39.935V45.017C58.4934 45.325 58.6364 45.479 58.9224 45.479H61.0674C61.8374 45.479 62.4644 45.171 62.9484 44.555C63.4544 43.939 63.7074 43.224 63.7074 42.41C63.7074 41.596 63.4324 40.903 62.8824 40.331C62.3324 39.759 61.5954 39.473 60.6714 39.473H58.9554C58.6474 39.473 58.4934 39.627 58.4934 39.935Z" fill="#1A171B"/>
<path d="M38.1221 26.9H49.4741C49.9801 26.9 50.2991 26.999 50.4311 27.197C50.5631 27.373 50.6291 27.659 50.6291 28.055V48.845C50.6291 49.241 50.5851 49.505 50.4971 49.637C50.3211 49.879 49.9801 50 49.4741 50H46.9001C46.3941 50 46.0751 49.912 45.9431 49.736C45.8111 49.538 45.7451 49.241 45.7451 48.845V31.619C45.7451 31.289 45.5471 31.124 45.1511 31.124H42.3131C42.2251 31.124 42.1261 31.146 42.0161 31.19C41.9281 31.234 41.8841 31.344 41.8841 31.52L41.7851 35.381V38.516C41.7851 41.112 41.6861 43.048 41.4881 44.324C41.2021 46.238 40.6411 47.646 39.8051 48.548C38.8371 49.604 37.4181 50.132 35.5481 50.132C34.6461 50.132 34.0411 50.066 33.7331 49.934C33.4471 49.802 33.3041 49.505 33.3041 49.043V46.205C33.3041 45.963 33.3481 45.787 33.4361 45.677C33.5241 45.545 33.7441 45.479 34.0961 45.479H34.4261C35.5261 45.479 36.1971 44.984 36.4391 43.994C36.7691 42.652 36.9341 39.099 36.9341 33.335L36.9671 28.055C36.9671 27.659 37.0111 27.395 37.0991 27.263C37.2751 27.021 37.6161 26.9 38.1221 26.9Z" fill="#1A171B"/>
<path d="M22.237 26.9H26.395C26.681 26.9 26.901 26.955 27.055 27.065C27.231 27.175 27.374 27.428 27.484 27.824L32.83 49.01C32.874 49.142 32.896 49.285 32.896 49.439C32.896 49.813 32.654 50 32.17 50H28.936C28.606 50 28.364 49.912 28.21 49.736C28.078 49.56 27.979 49.34 27.913 49.076L27.253 46.568C27.165 46.238 26.945 46.073 26.593 46.073H22.072C21.698 46.073 21.478 46.238 21.412 46.568L20.785 49.175C20.741 49.395 20.642 49.593 20.488 49.769C20.356 49.923 20.136 50 19.828 50H16.627C16.209 50 16 49.791 16 49.373C16 49.307 16 49.241 16 49.175C16.044 49.087 16.066 49.032 16.066 49.01L21.148 27.824C21.236 27.428 21.357 27.175 21.511 27.065C21.687 26.955 21.929 26.9 22.237 26.9ZM22.963 41.651H25.702C25.944 41.651 26.021 41.486 25.933 41.156L24.481 35.315C24.459 35.227 24.415 35.161 24.349 35.117C24.305 35.051 24.272 35.007 24.25 34.985C24.118 35.117 24.041 35.227 24.019 35.315L22.732 41.156C22.644 41.486 22.721 41.651 22.963 41.651Z" fill="#1A171B"/>
<path d="M408.874 26.9H423.493C423.757 26.9 423.933 26.988 424.021 27.164C424.131 27.318 424.186 27.494 424.186 27.692V30.629C424.186 31.091 423.955 31.322 423.493 31.322H419.203C418.807 31.322 418.609 31.52 418.609 31.916V48.845C418.609 49.241 418.565 49.505 418.477 49.637C418.301 49.879 417.96 50 417.454 50H414.88C414.374 50 414.055 49.912 413.923 49.736C413.791 49.538 413.725 49.241 413.725 48.845V31.916C413.725 31.52 413.527 31.322 413.131 31.322H408.973C408.423 31.322 408.148 31.102 408.148 30.662V27.527C408.148 27.109 408.39 26.9 408.874 26.9Z" fill="#1A171B"/>
<path d="M393.607 49.175V47.69C393.607 47.558 393.552 47.426 393.442 47.294C393.354 47.14 393.255 47.063 393.145 47.063H391.429C389.845 47.063 388.569 46.744 387.601 46.106C385.929 45.006 385.093 43.048 385.093 40.232V35.711C385.093 33.731 385.687 32.169 386.875 31.025C388.063 29.881 389.603 29.309 391.495 29.309H393.145C393.453 29.309 393.607 29.155 393.607 28.847V27.56C393.607 27.164 393.651 26.9 393.739 26.768C393.915 26.526 394.256 26.405 394.762 26.405H397.336C397.842 26.405 398.161 26.504 398.293 26.702C398.425 26.878 398.491 27.164 398.491 27.56V28.847C398.491 29.155 398.645 29.309 398.953 29.309H400.603C402.495 29.309 404.035 29.881 405.223 31.025C406.411 32.169 407.005 33.731 407.005 35.711V40.232C407.005 42.432 406.488 44.126 405.454 45.314C404.42 46.48 402.825 47.063 400.669 47.063H398.953C398.843 47.063 398.733 47.14 398.623 47.294C398.535 47.426 398.491 47.558 398.491 47.69V49.175C398.491 49.571 398.447 49.835 398.359 49.967C398.183 50.209 397.842 50.33 397.336 50.33H394.762C394.256 50.33 393.937 50.231 393.805 50.033C393.673 49.857 393.607 49.571 393.607 49.175ZM398.491 33.665V42.74C398.491 42.982 398.612 43.103 398.854 43.103H400.042C401.428 43.103 402.121 42.036 402.121 39.902V36.47C402.121 35.172 401.824 34.27 401.23 33.764C400.834 33.434 400.35 33.269 399.778 33.269H398.854C398.612 33.269 398.491 33.401 398.491 33.665ZM393.607 42.839V33.665C393.607 33.401 393.486 33.269 393.244 33.269H392.32C391.726 33.269 391.253 33.423 390.901 33.731C390.285 34.259 389.977 35.172 389.977 36.47V39.902C389.977 40.936 390.164 41.728 390.538 42.278C390.934 42.828 391.44 43.103 392.056 43.103H393.244C393.332 43.081 393.409 43.059 393.475 43.037C393.563 43.015 393.607 42.949 393.607 42.839Z" fill="#1A171B"/>
<path d="M372.038 50H369.53C369.134 50 368.87 49.956 368.738 49.868C368.496 49.692 368.375 49.351 368.375 48.845V28.055C368.375 27.659 368.419 27.395 368.507 27.263C368.683 27.021 369.024 26.9 369.53 26.9H372.104C372.61 26.9 372.929 26.999 373.061 27.197C373.193 27.373 373.259 27.659 373.259 28.055V38.846L377.681 28.055C377.879 27.571 378.055 27.263 378.209 27.131C378.385 26.977 378.638 26.9 378.968 26.9H381.641C382.147 26.9 382.466 26.999 382.598 27.197C382.73 27.373 382.796 27.659 382.796 28.055V48.845C382.796 49.241 382.752 49.505 382.664 49.637C382.488 49.879 382.147 50 381.641 50H379.067C378.561 50 378.242 49.912 378.11 49.736C377.978 49.538 377.912 49.241 377.912 48.845V37.526L373.556 48.845C373.38 49.329 373.171 49.648 372.929 49.802C372.709 49.934 372.412 50 372.038 50Z" fill="#1A171B"/>
<path d="M353.218 26.9H364.57C365.076 26.9 365.395 26.999 365.527 27.197C365.659 27.373 365.725 27.659 365.725 28.055V48.845C365.725 49.241 365.681 49.505 365.593 49.637C365.417 49.879 365.076 50 364.57 50H361.996C361.49 50 361.171 49.912 361.039 49.736C360.907 49.538 360.841 49.241 360.841 48.845V31.619C360.841 31.289 360.643 31.124 360.247 31.124H357.409C357.321 31.124 357.222 31.146 357.112 31.19C357.024 31.234 356.98 31.344 356.98 31.52L356.881 35.381V38.516C356.881 41.112 356.782 43.048 356.584 44.324C356.298 46.238 355.737 47.646 354.901 48.548C353.933 49.604 352.514 50.132 350.644 50.132C349.742 50.132 349.137 50.066 348.829 49.934C348.543 49.802 348.4 49.505 348.4 49.043V46.205C348.4 45.963 348.444 45.787 348.532 45.677C348.62 45.545 348.84 45.479 349.192 45.479H349.522C350.622 45.479 351.293 44.984 351.535 43.994C351.865 42.652 352.03 39.099 352.03 33.335L352.063 28.055C352.063 27.659 352.107 27.395 352.195 27.263C352.371 27.021 352.712 26.9 353.218 26.9Z" fill="#1A171B"/>
<path d="M332.314 48.845V28.055C332.314 27.659 332.358 27.395 332.446 27.263C332.622 27.021 332.963 26.9 333.469 26.9H336.043C336.549 26.9 336.868 26.999 337 27.197C337.132 27.373 337.198 27.659 337.198 28.055V35.183C337.198 35.491 337.352 35.645 337.66 35.645H339.244C339.75 35.645 340.146 35.491 340.432 35.183C340.806 34.787 340.993 34.138 340.993 33.236V30.794C340.993 29.54 341.312 28.583 341.95 27.923C342.61 27.241 343.457 26.9 344.491 26.9H346.702C346.988 26.9 347.23 26.988 347.428 27.164C347.626 27.318 347.725 27.549 347.725 27.857V29.936C347.725 30.266 347.637 30.486 347.461 30.596C347.307 30.706 347.153 30.761 346.999 30.761H346.339C346.053 30.761 345.855 30.893 345.745 31.157C345.657 31.399 345.613 31.674 345.613 31.982V34.688C345.613 35.414 345.459 35.986 345.151 36.404C344.733 36.756 344.326 37.097 343.93 37.427V37.559C344.766 37.955 345.437 38.461 345.943 39.077C346.449 39.693 346.702 40.606 346.702 41.816V48.845C346.702 49.241 346.658 49.505 346.57 49.637C346.394 49.879 346.053 50 345.547 50H342.973C342.467 50 342.148 49.912 342.016 49.736C341.884 49.538 341.818 49.241 341.818 48.845V43.4C341.818 42.344 341.609 41.541 341.191 40.991C340.773 40.419 340.113 40.133 339.211 40.133H337.594C337.33 40.133 337.198 40.309 337.198 40.661V48.845C337.198 49.351 337.099 49.67 336.901 49.802C336.725 49.934 336.439 50 336.043 50H333.469C333.073 50 332.809 49.956 332.677 49.868C332.435 49.692 332.314 49.351 332.314 48.845Z" fill="#1A171B"/>
<path d="M316.034 26.9H322.04C325.34 26.9 327.661 27.769 329.003 29.507C329.883 30.651 330.323 32.136 330.323 33.962C330.323 36.206 329.586 37.889 328.112 39.011C326.66 40.133 324.746 40.694 322.37 40.694H320.258C319.928 40.694 319.763 40.859 319.763 41.189V48.845C319.763 49.351 319.664 49.67 319.466 49.802C319.29 49.934 319.004 50 318.608 50H316.034C315.638 50 315.374 49.956 315.242 49.868C315 49.692 314.879 49.351 314.879 48.845V28.055C314.879 27.659 314.923 27.395 315.011 27.263C315.187 27.021 315.528 26.9 316.034 26.9ZM320.126 36.404H322.04C322.876 36.404 323.58 36.162 324.152 35.678C324.746 35.172 325.043 34.523 325.043 33.731C325.043 32.983 324.834 32.389 324.416 31.949C323.888 31.399 323.085 31.124 322.007 31.124H320.192C319.906 31.124 319.763 31.267 319.763 31.553V36.074C319.763 36.294 319.884 36.404 320.126 36.404Z" fill="#1A171B"/>
<path d="M298.021 41.585V35.315C298.021 33.115 298.307 31.399 298.879 30.167C299.979 27.813 302.091 26.636 305.215 26.636C308.141 26.636 310.176 27.692 311.32 29.804C312.046 31.146 312.409 32.983 312.409 35.315V41.585C312.409 43.763 312.123 45.468 311.551 46.7C310.451 49.076 308.339 50.264 305.215 50.264C302.773 50.264 300.958 49.56 299.77 48.152C298.604 46.722 298.021 44.533 298.021 41.585ZM307.525 41.024V35.876C307.525 34.16 307.426 32.994 307.228 32.378C306.92 31.41 306.249 30.926 305.215 30.926C304.181 30.926 303.51 31.399 303.202 32.345C303.004 32.961 302.905 34.138 302.905 35.876V41.024C302.905 42.74 303.004 43.906 303.202 44.522C303.51 45.49 304.181 45.974 305.215 45.974C306.249 45.974 306.92 45.501 307.228 44.555C307.426 43.939 307.525 42.762 307.525 41.024Z" fill="#1A171B"/>
<path d="M282.49 49.175V47.69C282.49 47.558 282.435 47.426 282.325 47.294C282.237 47.14 282.138 47.063 282.028 47.063H280.312C278.728 47.063 277.452 46.744 276.484 46.106C274.812 45.006 273.976 43.048 273.976 40.232V35.711C273.976 33.731 274.57 32.169 275.758 31.025C276.946 29.881 278.486 29.309 280.378 29.309H282.028C282.336 29.309 282.49 29.155 282.49 28.847V27.56C282.49 27.164 282.534 26.9 282.622 26.768C282.798 26.526 283.139 26.405 283.645 26.405H286.219C286.725 26.405 287.044 26.504 287.176 26.702C287.308 26.878 287.374 27.164 287.374 27.56V28.847C287.374 29.155 287.528 29.309 287.836 29.309H289.486C291.378 29.309 292.918 29.881 294.106 31.025C295.294 32.169 295.888 33.731 295.888 35.711V40.232C295.888 42.432 295.371 44.126 294.337 45.314C293.303 46.48 291.708 47.063 289.552 47.063H287.836C287.726 47.063 287.616 47.14 287.506 47.294C287.418 47.426 287.374 47.558 287.374 47.69V49.175C287.374 49.571 287.33 49.835 287.242 49.967C287.066 50.209 286.725 50.33 286.219 50.33H283.645C283.139 50.33 282.82 50.231 282.688 50.033C282.556 49.857 282.49 49.571 282.49 49.175ZM287.374 33.665V42.74C287.374 42.982 287.495 43.103 287.737 43.103H288.925C290.311 43.103 291.004 42.036 291.004 39.902V36.47C291.004 35.172 290.707 34.27 290.113 33.764C289.717 33.434 289.233 33.269 288.661 33.269H287.737C287.495 33.269 287.374 33.401 287.374 33.665ZM282.49 42.839V33.665C282.49 33.401 282.369 33.269 282.127 33.269H281.203C280.609 33.269 280.136 33.423 279.784 33.731C279.168 34.259 278.86 35.172 278.86 36.47V39.902C278.86 40.936 279.047 41.728 279.421 42.278C279.817 42.828 280.323 43.103 280.939 43.103H282.127C282.215 43.081 282.292 43.059 282.358 43.037C282.446 43.015 282.49 42.949 282.49 42.839Z" fill="#1A171B"/>
<path d="M245.986 16C258.136 16 267.986 25.8497 267.986 38C267.986 50.1503 258.136 60 245.986 60C239.506 60 233.681 57.1981 229.655 52.7402C232.579 54.7936 236.141 56 239.986 56C249.927 56 257.986 47.9411 257.986 38C257.986 28.0589 249.927 20 239.986 20C236.141 20 232.579 21.2057 229.655 23.2588C233.681 18.8013 239.506 16 245.986 16Z" fill="#E2001A"/>
<path d="M239.486 22C248.046 22 254.986 29.0515 254.986 37.75C254.986 46.4485 248.046 53.5 239.486 53.5C235.126 53.5 231.187 51.6693 228.371 48.7246C230.309 49.8509 232.57 50.5 234.986 50.5C242.165 50.5 247.986 44.7916 247.986 37.75C247.986 30.7084 242.165 25 234.986 25C232.57 25 230.309 25.6483 228.371 26.7744C231.187 23.83 235.126 22 239.486 22Z" fill="#1A171B"/>
<path d="M234.986 28C237.466 28 239.734 28.905 241.482 30.4004C240.357 29.8261 239.085 29.5 237.736 29.5C233.179 29.5 229.486 33.1936 229.486 37.75C229.486 42.3064 233.179 46 237.736 46C239.623 46 241.361 45.3651 242.751 44.2988C240.918 46.5565 238.121 48 234.986 48C229.463 48 224.986 43.5228 224.986 38C224.986 32.4772 229.463 28 234.986 28Z" fill="#E2001A"/>
</svg>
