<svg xmlns="http://www.w3.org/2000/svg" width="88" height="48" viewBox="0 0 88 48">
  <g fill="none" fill-rule="evenodd">
    <rect width="88" height="48"/>
    <g transform="translate(16 11)">
      <path fill="#FFFFFF" fill-opacity=".9" fill-rule="nonzero" d="M13.4042553,22.6382979 L15.2629787,22.6382979 C15.7782411,22.6382979 16.2553077,22.4747622 16.6451064,22.1967629 C17.0349051,22.4747622 17.5119717,22.6382979 18.027234,22.6382979 L18.551606,22.6382979 C18.5643919,23.9434054 19.6263377,24.9974468 20.9344681,24.9974468 L22.6025532,24.9974468 C23.9106836,24.9974468 24.9726294,23.9434054 24.9854152,22.6382979 L25.3669252,22.6382979 C25.379711,23.9434054 26.4416568,24.9974468 27.7497872,24.9974468 L29.4178723,24.9974468 C30.7339551,24.9974468 31.8008511,23.9305509 31.8008511,22.6144681 L31.8008511,22.2041077 C32.5978911,22.5955613 33.5149357,22.8051064 34.5412766,22.8051064 C35.7201895,22.8051064 36.8299049,22.5427045 37.8118812,22.0508007 C38.2307769,22.4166565 38.7788666,22.6382979 39.3787234,22.6382979 L41.2374468,22.6382979 C41.8458494,22.6382979 42.4009994,22.4102964 42.8221133,22.0350768 C43.2515628,22.4173479 43.8128208,22.6382979 44.4068085,22.6382979 L46.4323404,22.6382979 C46.9990987,22.6382979 47.5014018,22.4480563 47.8971771,22.1378332 C48.7293648,22.5732148 49.6974922,22.8051064 50.7931915,22.8051064 C52.3893909,22.8051064 53.7089523,22.2946191 54.8406009,21.3306222 C55.5664232,20.7123291 55.8538243,19.7209073 55.5712167,18.8102827 L55.1422805,17.4281551 C54.6288636,15.7738116 52.5778659,15.2026095 51.2832181,16.3534076 C51.0984568,15.9076289 51.0076596,15.1486143 51.0076596,14.1548936 C51.0076596,13.2897751 51.1004275,12.6250336 51.2404236,12.1915111 C51.2727004,12.2155186 51.3059176,12.2418777 51.3393908,12.2705689 C52.7624715,13.4903524 54.971707,12.6655906 55.2472923,10.8116533 L55.5094199,9.04824902 C55.6477658,8.11755846 55.2255186,7.19260016 54.4317033,6.68744497 C53.4023428,6.03239736 52.3467558,5.69531915 50.9361702,5.69531915 C49.6788504,5.69531915 48.5887984,5.99530017 47.6755715,6.54559159 C47.2549419,6.12876423 46.6741418,5.86212766 46.0034043,5.86212766 L44.1208511,5.86212766 C43.5905925,5.86212766 43.0866459,6.03818202 42.679241,6.34762686 C42.2789319,6.04298451 41.77931,5.86212766 41.2374468,5.86212766 L39.3787234,5.86212766 C38.6077013,5.86212766 37.922204,6.22830318 37.4866497,6.79623611 C36.6131554,6.07730527 35.5020583,5.69531915 34.16,5.69531915 C32.6543214,5.69531915 31.452131,6.18265239 30.5309013,7.05715381 C30.1193788,6.34292986 29.3481785,5.86212766 28.4646809,5.86212766 L22.8885106,5.86212766 C22.3139371,5.86212766 21.7868588,6.06547891 21.3753191,6.40413801 C20.9637795,6.06547891 20.4367012,5.86212766 19.8621277,5.86212766 L18.027234,5.86212766 C17.5119717,5.86212766 17.0349051,6.02566333 16.6451064,6.30366259 C16.2553077,6.02566333 15.7782411,5.86212766 15.2629787,5.86212766 L13.4042553,5.86212766 L13.4042553,3.21702128 C13.4042553,1.90093847 12.3373594,0.834042553 11.0212766,0.834042553 L8.28085106,0.834042553 C4.04791919,0.834042553 0.941276596,3.90992631 0.941276596,8.5787234 C0.941276596,10.8689063 1.60683267,12.697734 2.86601461,14.0166331 L0.466093003,19.2642229 C-0.255711396,20.8424967 0.897694507,22.6382979 2.63319149,22.6382979 L4.75404255,22.6382979 C5.69518384,22.6382979 6.5481644,22.0843794 6.93098027,21.2246126 L6.97096082,21.1348202 C7.32092212,22.0156015 8.18093329,22.6382979 9.18638298,22.6382979 L11.0212766,22.6382979 C11.4553209,22.6382979 11.8622615,22.5222536 12.212766,22.3194977 C12.5632704,22.5222536 12.9702111,22.6382979 13.4042553,22.6382979 Z"/>
      <polygon fill="#000000" points="18.027 8.245 18.027 13.345 15.263 13.345 15.263 8.245 13.404 8.245 13.404 20.255 15.263 20.255 15.263 14.87 18.027 14.87 18.027 20.255 19.862 20.255 19.862 8.245"/>
      <polygon fill="#000000" points="44.407 20.255 46.432 20.255 43.025 13.893 46.003 8.245 44.121 8.245 41.237 13.797 41.237 8.245 39.379 8.245 39.379 20.255 41.237 20.255 41.237 14.274"/>
      <path fill="#000000" d="M50.7931915 20.4221277C51.8893617 20.4221277 52.6519149 20.0646809 53.2953191 19.5165957L52.866383 18.1344681C52.4374468 18.5157447 51.746383 18.8731915 50.8408511 18.8731915 49.3395745 18.8731915 48.6246809 17.1574468 48.6246809 14.1548936 48.6246809 11.1285106 49.5778723 9.62723404 50.9123404 9.62723404 51.6748936 9.62723404 52.3897872 10.0323404 52.8902128 10.4612766L53.1523404 8.69787234C52.6280851 8.36425532 52.0085106 8.07829787 50.9361702 8.07829787 48.1242553 8.07829787 46.6706383 10.4851064 46.6706383 14.2502128 46.6706383 18.3489362 48.2195745 20.4221277 50.7931915 20.4221277zM29.4178723 18.7302128L29.4178723 22.6144681 27.7497872 22.6144681 27.7497872 20.2553191 22.6025532 20.2553191 22.6025532 22.6144681 20.9344681 22.6144681 20.9344681 18.7302128 21.6731915 18.7302128C22.7693617 16.1804255 22.8885106 12.4629787 22.8885106 9.26978723L22.8885106 8.24510638 28.4646809 8.24510638 28.4646809 18.7302128 29.4178723 18.7302128zM26.6297872 18.7302128L26.6297872 9.74638298 24.5565957 9.74638298 24.5565957 9.96085106C24.5565957 12.4868085 24.4374468 16.1804255 23.4365957 18.7302128L26.6297872 18.7302128zM37.4961702 19.4451064C36.733617 20.0408511 35.732766 20.4221277 34.5412766 20.4221277 32.0629787 20.4221277 30.5378723 18.4442553 30.5378723 14.7506383 30.5378723 10.8902128 31.6102128 8.07829787 34.16 8.07829787 36.1617021 8.07829787 37.4723404 9.57957447 37.4723404 13.6544681L37.4723404 14.6791489 32.4680851 14.6791489C32.4680851 17.3957447 33.2306383 18.8255319 34.7080851 18.8255319 35.7565957 18.8255319 36.5906383 18.3489362 37.067234 18.0153191L37.4961702 19.4451064zM34.16 9.60340426C33.0161702 9.60340426 32.6110638 11.0093617 32.4919149 13.1540426L35.5659574 13.1540426C35.5659574 11.1046809 35.2323404 9.60340426 34.16 9.60340426z"/>
      <path fill="#FF0000" d="M9.18638298,13.7259574 L7.6612766,13.7259574 L4.75404255,20.2553191 L2.63319149,20.2553191 L5.82638298,13.2731915 C4.32510638,12.5106383 3.32425532,11.1285106 3.32425532,8.5787234 C3.32425532,5.00425532 5.58808511,3.21702128 8.28085106,3.21702128 L11.0212766,3.21702128 L11.0212766,20.2553191 L9.18638298,20.2553191 L9.18638298,13.7259574 Z M9.18638298,12.2008511 L9.18638298,4.76595745 L8.2093617,4.76595745 C6.73191489,4.76595745 5.30212766,5.74297872 5.30212766,8.5787234 C5.30212766,11.3191489 6.61276596,12.2008511 8.2093617,12.2008511 L9.18638298,12.2008511 Z"/>
    </g>
  </g>
</svg>
